<svg width="92" height="50" viewBox="0 0 92 50" fill="none" xmlns="http://www.w3.org/2000/svg">
<g id="*logo">
<path d="M0 49.4673V43.2079L21.3874 18.1705L23.2033 21.6331H0.470792V13.6424H31.6776V19.9018L10.2902 44.9392L8.407 41.4766H32.2829V49.4673H0Z" fill="white"/>
<path d="M60.3938 50C57.2103 50 54.4752 49.3341 52.1885 48.0023C49.9018 46.6706 48.1532 44.6507 46.9426 41.9427C45.732 39.1904 45.1267 35.7278 45.1267 31.5549C45.1267 27.3376 45.7544 23.8749 47.0098 21.167C48.3101 18.459 50.1036 16.4392 52.3903 15.1074C54.677 13.7756 57.3448 13.1097 60.3938 13.1097C63.8014 13.1097 66.8503 13.8644 69.5406 15.3737C72.2757 16.8831 74.4278 19.0139 75.9971 21.7663C77.6113 24.5186 78.4184 27.7815 78.4184 31.5549C78.4184 35.2838 77.6113 38.5245 75.9971 41.2768C74.4278 44.0292 72.2757 46.1822 69.5406 47.736C66.8503 49.2453 63.8014 50 60.3938 50ZM39.0064 49.4673V0.0582626H49.4983V20.9006L48.8257 31.4883L49.0275 42.1425V49.4673H39.0064ZM58.5779 41.4766C60.3265 41.4766 61.8734 41.0771 63.2185 40.278C64.6085 39.4789 65.707 38.3469 66.5141 36.882C67.366 35.3726 67.7919 33.5969 67.7919 31.5549C67.7919 29.4684 67.366 27.6927 66.5141 26.2277C65.707 24.7628 64.6085 23.6308 63.2185 22.8317C61.8734 22.0326 60.3265 21.6331 58.5779 21.6331C56.8292 21.6331 55.2599 22.0326 53.8699 22.8317C52.48 23.6308 51.3815 24.7628 50.5744 26.2277C49.7673 27.6927 49.3638 29.4684 49.3638 31.5549C49.3638 33.5969 49.7673 35.3726 50.5744 36.882C51.3815 38.3469 52.48 39.4789 53.8699 40.278C55.2599 41.0771 56.8292 41.4766 58.5779 41.4766Z" fill="white"/>
<path d="M81.0813 8.88963V7.57866L84.4861 4.39487C84.7551 4.15349 84.9527 3.93707 85.0788 3.74563C85.2049 3.55419 85.289 3.37939 85.331 3.22124C85.3815 3.06309 85.4067 2.91743 85.4067 2.78425C85.4067 2.43466 85.2848 2.1683 85.041 1.98518C84.8056 1.79374 84.4567 1.69802 83.9943 1.69802C83.6244 1.69802 83.2797 1.76877 82.9602 1.91027C82.6492 2.05177 82.3844 2.27235 82.1658 2.572L80.6777 1.62311C81.014 1.12369 81.4848 0.728317 82.0901 0.43699C82.6954 0.145663 83.3932 0 84.1835 0C84.8392 0 85.4109 0.108207 85.8985 0.324621C86.3945 0.532712 86.777 0.8282 87.046 1.21109C87.3235 1.59397 87.4622 2.05177 87.4622 2.58449C87.4622 2.86749 87.4244 3.15049 87.3487 3.43349C87.2814 3.70817 87.1385 3.9995 86.9199 4.30747C86.7098 4.61545 86.3987 4.96088 85.9868 5.34377L83.162 7.97819L82.7711 7.24155H87.7522V8.88963H81.0813Z" fill="white"/>
<path d="M89.9571 8.88963V0.898951L90.8398 1.77293H88.1916V0.149825H92V8.88963H89.9571Z" fill="white"/>
</g>
</svg>
